<svg xmlns="http://www.w3.org/2000/svg" width="100" height="100" viewBox="0 0 46 46"><path d="M73.926 105.68c-14.248-.004-16.457.038-17.136.32-1.05.439-1.522.889-1.984 1.895-.367.797-.389 1.786-.393 17.286-.004 14.325.037 16.541.32 17.22.439 1.048.89 1.52 1.897 1.981.799.366 1.781.388 17.25.388 15.47 0 16.452-.022 17.25-.388 1.008-.462 1.46-.933 1.898-1.982.283-.677.325-2.896.325-17.172s-.042-16.496-.325-17.173c-.439-1.049-.89-1.52-1.897-1.982-.798-.366-1.786-.389-17.205-.393zm-3.27 10.775c.117 0 .469.339.785.752l.574.751-1.078 1.139c-.595.628-1.078 1.338-1.078 1.584 0 .534.483 1.515.928 1.884.924.766.835 3.076-.143 3.704-.577.372-1.806.563-2.372.37-1.358-.461-1.854-1.318-1.837-3.17.022-2.267.644-3.642 2.48-5.48.842-.843 1.626-1.534 1.742-1.534zm-7.336.04c.125.017.23.144.43.397.87 1.1.872 1.192.065 1.806-1.529 1.165-1.724 2.32-.625 3.7.792.994.982 2.178.516 3.2-.458 1.005-2.106 1.453-3.328.905-.497-.222-.823-.597-1.137-1.306-1.089-2.457.613-6.536 3.52-8.438.287-.188.433-.281.559-.264zm23.017 6.373c.871-.012 1.833.42 2.245 1.047.912 1.39.49 4.457-.893 6.472-.703 1.025-2.59 2.768-2.999 2.768-.087 0-.405-.347-.706-.77l-.548-.768 1.043-1.014c1.23-1.197 1.386-2.078.546-3.087-.752-.902-.985-1.443-.985-2.288 0-1.357.617-2.1 1.931-2.327.12-.02.241-.031.366-.033zm-7.283.022c.895.022 1.689.44 2.106 1.157.893 1.535.376 4.581-1.115 6.562-.708.942-2.47 2.538-2.805 2.543-.074 0-.4-.346-.724-.77l-.59-.773.723-.638c1.672-1.474 1.85-2.39.724-3.736-.407-.487-.75-1.09-.763-1.34-.09-1.823.3-2.563 1.524-2.893.311-.083.62-.12.92-.112z" style="fill:#fff;fill-opacity:1;stroke-width:1.00309" transform="matrix(1.00149 0 0 .99097 -50.99 -101.089)"/><path d="M56.312 148.068c-2.214-.589-3.809-2.025-4.911-4.425l-.486-1.059v-34.713l.486-1.058c1.12-2.44 2.707-3.847 5.009-4.438 1.89-.486 33.052-.486 34.942 0 2.3.591 3.887 1.997 5.008 4.438l.486 1.058v34.713l-.486 1.059c-1.12 2.44-2.707 3.846-5.008 4.438-1.838.472-33.257.46-35.04-.013zm34.82-3.66c1.007-.462 1.458-.934 1.896-1.983.284-.679.326-2.902.326-17.197 0-14.296-.042-16.519-.326-17.197-.438-1.05-.89-1.522-1.897-1.984-.798-.367-1.785-.39-17.204-.394-14.25-.004-16.459.037-17.138.321-1.05.439-1.521.89-1.984 1.897-.366.798-.389 1.788-.393 17.31-.004 14.345.037 16.565.32 17.244.44 1.05.89 1.521 1.898 1.984.798.366 1.78.388 17.25.388s16.453-.022 17.251-.388zm-14.616-12.016-.59-.774.723-.639c1.672-1.476 1.85-2.394.724-3.74-.407-.488-.75-1.093-.763-1.344-.09-1.825.3-2.566 1.524-2.895 1.246-.336 2.47.087 3.026 1.045.893 1.537.376 4.588-1.115 6.571-.708.943-2.47 2.542-2.806 2.547-.073.001-.399-.346-.723-.771zm7.468.004-.548-.77 1.043-1.016c1.23-1.198 1.386-2.08.546-3.09-.752-.904-.984-1.446-.984-2.292 0-1.36.616-2.103 1.93-2.33.952-.165 2.14.298 2.61 1.015.913 1.393.49 4.463-.891 6.481-.703 1.027-2.591 2.771-3 2.771-.087 0-.405-.346-.706-.77zm-23.606-5.89c-.497-.223-.824-.599-1.138-1.309-1.088-2.46.614-6.546 3.52-8.45.574-.376.588-.374.99.134.869 1.101.872 1.192.065 1.808-1.53 1.166-1.724 2.322-.626 3.704.792.996.983 2.183.517 3.206-.458 1.006-2.107 1.454-3.328.907zm7.893.136c-1.357-.463-1.854-1.32-1.836-3.175.021-2.27.643-3.647 2.48-5.489.842-.844 1.626-1.535 1.742-1.535.115 0 .468.34.784.753l.574.752-1.078 1.14c-.595.63-1.078 1.34-1.078 1.587 0 .535.483 1.517.928 1.886.924.767.835 3.08-.143 3.71-.577.372-1.806.564-2.373.37z" style="display:inline;fill:#58a6ff;stroke-width:.211667" transform="matrix(1.00149 0 0 .99097 -50.99 -101.089)"/></svg>